<svg xmlns="http://www.w3.org/2000/svg" width="415" height="415" viewBox="0 0 415 415">
<g>
<path d="M 381.22 412.01 L 377.94 415.00 L 369.12 415.00 L 380.23 405.75 C398.47,390.58 401.00,388.05 401.00,385.02 C401.00,383.53 400.08,381.48 398.96,380.46 C396.94,378.63 396.75,378.78 382.71,392.68 C374.89,400.42 366.10,408.60 363.16,410.87 L 357.82 415.00 L 345.51 415.00 L 353.87 409.33 C358.48,406.20 369.34,396.81 378.01,388.46 C386.68,380.11 395.51,372.00 397.63,370.45 C404.38,365.50 407.00,362.69 407.00,360.39 C407.00,355.32 394.61,354.88 384.13,359.59 C378.66,362.05 375.00,362.67 375.00,361.15 C375.00,360.00 377.97,357.61 381.02,356.32 C383.09,355.44 383.79,354.10 384.88,348.87 C387.18,337.81 387.41,328.12 385.58,318.94 C383.68,309.42 380.24,301.50 378.00,301.50 C377.17,301.50 376.61,302.06 376.75,302.75 C376.89,303.44 376.61,304.00 376.14,304.00 C375.67,304.00 375.04,307.26 374.73,311.25 C373.90,322.17 369.95,331.27 361.62,341.50 C358.50,345.33 357.07,344.11 359.94,340.08 C363.57,334.99 367.84,324.61 369.08,317.87 C370.16,311.98 370.08,311.06 368.02,306.27 C366.69,303.18 363.79,299.20 360.86,296.47 C355.48,291.43 352.27,290.86 352.83,295.03 C353.02,296.39 353.24,301.33 353.32,306.00 C353.51,316.11 351.79,320.17 344.52,326.87 C338.90,332.06 334.54,334.00 328.53,334.00 C326.04,334.00 324.00,334.25 324.00,334.55 C324.00,334.85 326.25,339.87 329.01,345.71 C336.13,360.81 334.05,360.93 324.97,345.95 C319.66,337.17 315.47,324.35 313.47,310.79 C309.87,286.32 305.15,279.00 293.00,279.00 C282.86,279.00 276.48,285.44 271.68,300.50 C267.05,315.05 264.31,342.24 265.95,357.43 C267.13,368.41 271.18,384.23 272.96,384.82 C273.54,385.01 273.76,385.58 273.45,386.09 C273.14,386.59 273.39,387.00 274.00,387.00 C274.61,387.00 274.84,387.45 274.50,388.00 C274.16,388.55 274.39,389.00 275.00,389.00 C275.61,389.00 275.84,389.45 275.50,390.00 C275.16,390.55 275.39,391.00 276.00,391.00 C276.61,391.00 276.84,391.45 276.50,392.00 C276.16,392.55 276.39,393.00 277.00,393.00 C277.61,393.00 277.89,393.36 277.62,393.81 C276.78,395.17 284.14,404.07 290.76,409.69 L 297.02 415.00 L 242.09 415.00 C267.79,415.00 285.00,414.63 285.00,414.07 C285.00,413.56 283.97,412.33 282.71,411.32 C274.07,404.46 264.19,384.65 261.11,368.00 C257.45,348.25 260.10,315.90 266.96,296.38 C271.24,284.19 280.07,275.01 288.95,273.51 C292.96,272.83 293.94,271.37 294.00,266.00 C294.02,264.62 294.86,260.22 295.86,256.22 C296.87,252.21 297.42,249.09 297.09,249.27 C288.30,254.19 280.20,255.99 266.77,255.99 C258.05,256.00 258.04,256.00 257.48,258.75 C256.39,264.08 252.57,270.24 248.35,273.46 C246.00,275.25 239.22,279.26 233.28,282.36 C219.81,289.38 209.52,297.67 208.56,302.27 C208.42,302.95 207.95,304.32 207.51,305.33 C206.41,307.88 209.11,310.42 211.95,309.51 C213.15,309.13 216.40,306.81 219.17,304.35 C224.07,300.00 228.36,297.62 230.21,298.24 C230.70,298.40 229.08,299.96 226.61,301.71 C221.02,305.65 216.56,313.24 214.49,322.33 C212.28,332.04 213.35,336.57 218.27,338.32 C221.04,339.31 227.19,333.08 229.25,327.21 C231.07,322.04 237.60,315.00 240.58,315.00 C241.61,315.00 241.05,315.93 238.96,317.69 C234.71,321.27 232.25,327.27 232.43,333.68 C232.68,343.24 238.53,345.95 244.60,339.32 C248.08,335.52 249.66,335.34 248.54,338.87 C247.40,342.46 242.38,347.00 239.55,347.00 C235.23,347.00 231.25,344.33 229.87,340.51 C228.39,336.41 227.96,336.28 225.40,339.11 C219.25,345.95 211.48,342.44 209.66,332.00 C209.08,328.71 210.71,318.85 212.53,314.58 C213.19,313.03 213.02,312.78 211.66,313.30 C210.74,313.65 208.90,313.53 207.59,313.03 C205.50,312.24 205.04,312.50 203.99,315.02 C203.33,316.61 202.95,318.08 203.15,318.28 C203.34,318.48 202.71,319.43 201.75,320.39 C200.19,321.95 199.53,324.02 199.88,326.25 C199.95,326.66 199.52,327.00 198.94,327.00 C198.36,327.00 198.16,327.45 198.50,328.00 C198.84,328.55 198.59,329.00 197.95,329.00 C197.31,329.00 197.03,329.65 197.34,330.44 C197.64,331.22 197.47,332.01 196.97,332.19 C196.46,332.36 194.87,337.00 193.44,342.50 C191.39,350.36 190.71,355.80 190.29,367.90 C189.67,385.49 191.13,395.29 196.22,407.75 L 199.19 415.00 L 192.95 415.00 L 190.01 407.03 C185.02,393.49 183.67,384.49 184.22,368.30 C184.49,360.43 184.47,354.00 184.18,354.00 C183.89,354.00 182.93,354.66 182.05,355.46 C179.49,357.77 162.13,363.06 155.00,363.69 C151.43,364.01 148.00,364.67 147.38,365.15 C146.72,365.67 145.11,365.42 143.38,364.52 C141.80,363.69 139.75,363.01 138.83,363.01 C136.67,363.00 134.00,361.97 134.00,361.14 C134.01,360.79 138.62,360.46 144.25,360.40 C154.96,360.30 160.69,359.14 176.50,353.91 L 185.50 350.92 L 187.73 342.71 C188.96,338.20 192.85,328.65 196.37,321.50 C199.90,314.35 203.01,306.92 203.30,305.00 C203.59,303.08 204.12,300.76 204.49,299.84 C204.98,298.59 202.37,299.32 193.82,302.80 C187.59,305.34 182.27,307.66 182.00,307.96 C181.73,308.26 180.82,308.60 180.00,308.71 C179.18,308.83 173.32,310.32 167.00,312.02 C155.17,315.20 143.05,316.20 136.15,314.58 C133.02,313.85 132.85,313.94 133.50,315.98 C134.10,317.88 133.95,318.04 132.34,317.16 C126.57,314.00 111.78,293.91 108.98,285.44 L 107.91 282.20 L 98.87 281.85 C90.97,281.54 89.59,281.22 88.03,279.28 L 86.24 277.07 L 80.87 278.95 C77.92,279.98 73.81,281.14 71.75,281.53 C69.69,281.91 68.00,282.63 68.00,283.13 C68.00,284.30 61.94,287.99 60.00,287.99 C59.17,287.99 60.08,286.98 62.00,285.75 L 65.50 283.50 L 59.50 282.96 C53.75,282.45 53.62,282.37 56.32,281.21 C57.86,280.55 60.65,280.00 62.51,280.00 C66.39,280.00 80.58,275.73 86.50,272.78 C88.70,271.68 92.66,268.98 95.31,266.78 C100.71,262.29 102.31,262.36 99.04,266.94 L 96.86 270.00 L 99.26 270.00 C100.58,270.00 103.76,268.94 106.33,267.64 C108.90,266.34 110.99,265.55 110.98,265.89 C110.92,268.62 101.88,273.00 96.31,273.00 C91.17,273.00 88.44,275.57 92.49,276.59 C97.12,277.75 108.26,276.39 113.82,273.99 C124.08,269.56 126.42,260.79 121.98,243.43 C119.65,234.31 116.36,228.79 111.75,226.28 C106.84,223.60 94.56,224.11 85.05,227.38 C77.02,230.14 75.30,230.16 79.44,227.44 C87.08,222.44 102.61,218.97 109.21,220.79 C112.73,221.77 112.91,221.69 113.49,219.05 C114.30,215.34 112.55,205.04 110.22,199.78 C107.83,194.43 102.74,189.40 98.17,187.89 C92.40,185.99 79.72,187.34 70.06,190.90 C65.42,192.60 61.25,194.00 60.81,194.00 C56.04,194.00 71.66,186.12 81.72,183.46 C84.90,182.62 89.75,182.03 92.50,182.15 L 97.50 182.36 L 97.24 177.43 C96.88,170.64 95.34,166.45 91.66,162.27 C85.32,155.05 76.41,154.19 57.36,158.98 C29.62,165.95 15.26,178.23 8.81,200.51 C6.80,207.45 6.50,210.66 6.53,225.00 C6.57,239.74 6.87,242.68 9.38,252.50 C13.43,268.37 19.91,285.00 22.05,285.00 C22.64,285.00 22.86,285.42 22.54,285.94 C22.22,286.45 22.61,287.24 23.41,287.69 C24.21,288.13 25.00,288.93 25.18,289.46 C25.93,291.71 33.83,299.40 37.75,301.70 C42.98,304.77 43.29,306.47 38.45,305.69 L 34.91 305.11 L 37.94 309.31 C42.18,315.18 59.37,333.55 66.20,339.52 C72.91,345.38 84.22,351.73 95.75,356.12 C103.48,359.07 106.11,361.00 102.38,361.00 C101.05,361.00 100.98,361.27 102.00,362.50 C102.68,363.33 102.85,364.01 102.37,364.01 C101.89,364.02 104.12,366.50 107.32,369.51 C110.52,372.53 113.96,375.00 114.96,375.00 C117.19,375.00 118.42,372.22 116.97,370.46 C115.26,368.41 117.67,367.65 120.22,369.44 C121.44,370.30 122.04,371.00 121.55,371.00 C119.83,371.00 125.52,376.27 128.69,377.62 C131.89,378.98 135.00,378.61 135.00,376.86 C135.00,376.35 134.32,374.31 133.49,372.31 C132.65,370.32 132.22,368.44 132.53,368.14 C132.83,367.83 135.71,369.03 138.92,370.79 C145.24,374.26 149.72,374.90 150.65,372.46 C150.98,371.62 150.44,370.04 149.47,368.96 C147.75,367.07 147.77,367.00 149.81,367.00 C152.80,367.00 154.53,370.55 153.08,373.72 C152.05,375.98 151.53,376.15 146.73,375.73 C143.85,375.48 140.53,374.94 139.34,374.54 C137.40,373.89 137.20,374.15 137.34,377.16 C137.48,380.14 137.19,380.54 134.63,380.83 C130.46,381.30 127.57,380.35 123.95,377.31 C121.01,374.83 120.65,374.75 119.52,376.31 C116.26,380.77 107.57,376.28 101.08,366.79 C97.09,360.95 95.86,359.87 91.55,358.46 C77.69,353.90 68.78,347.65 52.95,331.37 C39.84,317.91 33.00,309.28 33.00,306.23 C33.00,305.08 31.76,303.20 30.25,302.03 C28.74,300.87 26.60,298.65 25.50,297.09 C24.40,295.54 21.66,292.01 19.41,289.25 C13.83,282.40 5.00,259.15 5.00,251.31 C5.00,249.15 4.34,246.51 3.53,245.44 C2.59,244.20 2.03,240.97 1.96,236.50 C1.91,232.65 1.47,228.60 1.00,227.50 C0.51,226.36 0.11,266.46 0.07,320.25 L 0.00 415.00 L 0.00 0.00 L 0.13 111.25 C0.20,179.92 0.59,219.90 1.13,215.70 C1.61,211.96 2.68,207.59 3.50,206.00 C4.33,204.40 5.00,201.26 5.00,199.02 C5.00,194.84 8.19,187.50 13.98,178.36 C16.62,174.21 17.00,172.70 17.00,166.43 C17.00,159.22 15.39,154.03 9.98,143.83 C6.32,136.94 3.88,129.63 4.45,127.33 C6.17,120.51 31.08,115.63 40.00,120.37 C52.24,126.88 61.25,138.03 61.41,146.90 L 61.50 151.50 L 70.02 151.16 C90.53,150.33 99.48,158.04 100.97,177.81 C101.68,187.19 102.46,188.91 106.00,189.01 C108.39,189.08 113.98,198.26 115.20,204.13 C115.81,207.08 116.35,213.16 116.40,217.64 C116.49,225.02 116.74,226.01 119.05,228.16 C122.40,231.27 125.59,238.01 127.62,246.25 C128.98,251.77 129.09,254.33 128.23,261.02 C127.03,270.44 125.97,271.97 117.75,276.12 C113.91,278.06 112.00,279.64 112.00,280.85 C112.00,282.87 119.79,297.14 124.50,303.76 C128.69,309.65 133.86,311.50 146.00,311.49 C151.23,311.48 158.20,310.85 161.50,310.09 C170.49,308.02 193.35,300.32 204.50,295.60 C211.84,292.50 213.48,291.61 216.00,289.40 C217.38,288.19 224.96,283.92 232.85,279.91 C240.74,275.89 247.85,271.69 248.64,270.56 C258.07,257.07 258.26,254.98 250.39,251.49 C247.30,250.13 242.57,248.36 239.88,247.56 C237.19,246.76 233.75,245.41 232.24,244.57 C228.20,242.30 218.82,238.85 218.25,239.42 C216.84,240.82 204.27,232.18 192.99,222.06 C188.05,217.63 185.24,213.95 181.36,206.86 C175.40,195.94 171.00,184.31 171.00,179.48 C171.00,175.10 168.98,174.00 160.82,173.98 C153.52,173.97 153.42,173.92 148.62,168.16 C145.29,164.16 145.00,163.29 145.00,157.44 C145.00,150.64 147.16,142.70 149.85,139.61 C150.76,138.57 153.07,137.06 155.00,136.25 C156.93,135.44 159.62,133.98 161.00,133.01 C162.38,132.04 165.52,130.93 168.00,130.55 C176.11,129.31 178.65,128.01 183.85,122.47 C186.68,119.46 189.22,117.00 189.49,117.00 C189.77,117.00 190.00,118.80 190.00,121.00 C190.00,123.20 189.55,125.00 189.00,125.00 C188.45,125.00 188.00,124.45 188.00,123.79 C188.00,123.02 187.37,123.20 186.31,124.26 C185.38,125.19 184.82,126.11 185.06,126.30 C185.30,126.49 189.07,127.39 193.43,128.31 C197.79,129.23 204.50,131.55 208.34,133.47 C215.25,136.91 215.30,136.92 212.72,134.23 C211.29,132.73 208.85,128.80 207.31,125.50 C204.79,120.12 204.50,118.41 204.50,109.00 C204.50,96.06 207.11,87.14 213.99,76.62 C220.71,66.34 228.34,61.00 236.32,61.00 C240.89,61.00 246.00,63.87 246.00,66.44 C246.00,67.16 246.90,70.56 248.00,74.00 C249.10,77.44 250.00,81.98 250.00,84.07 C250.00,89.19 251.60,89.91 252.36,85.14 C253.23,79.68 259.56,67.55 263.07,64.59 C266.61,61.62 271.17,60.60 278.33,61.19 C286.87,61.90 299.08,71.27 303.86,80.78 C308.07,89.17 309.46,95.30 309.48,105.59 L 309.50 115.67 L 319.11 115.21 C324.97,114.93 328.97,115.14 329.34,115.75 C329.73,116.37 326.88,116.92 321.73,117.21 C311.19,117.80 304.33,120.68 298.96,126.78 C296.78,129.26 294.47,133.02 293.84,135.14 C292.79,138.63 291.00,140.45 291.00,138.02 C291.00,137.41 289.97,137.45 288.25,138.12 C286.67,138.73 282.73,138.94 279.00,138.60 L 272.50 138.02 L 276.50 141.60 C283.75,148.09 288.50,150.27 296.36,150.72 C302.29,151.06 304.05,150.78 306.75,149.08 C310.80,146.52 311.04,144.61 307.19,145.46 C305.64,145.80 303.28,145.64 301.94,145.10 C299.56,144.15 299.57,144.13 302.60,144.06 C304.48,144.02 307.38,142.72 309.97,140.75 C321.01,132.36 323.30,131.00 326.49,131.00 C331.08,131.00 336.09,133.23 335.10,134.84 C334.48,135.84 333.77,135.85 331.66,134.89 C330.19,134.22 328.79,133.88 328.54,134.13 C328.28,134.38 330.29,138.99 332.98,144.37 C339.22,156.80 340.41,162.33 340.46,179.00 C340.49,190.54 340.15,193.59 338.11,200.00 C336.80,204.12 335.71,208.06 335.70,208.75 C335.68,209.44 335.30,210.00 334.86,210.00 C334.41,210.00 333.30,211.46 332.38,213.25 C331.46,215.04 328.64,219.19 326.12,222.48 L 321.53 228.46 L 327.96 223.98 C340.41,215.30 352.60,201.60 358.92,189.17 C360.13,186.79 362.00,181.43 363.06,177.26 C367.44,160.15 364.12,142.26 354.56,131.43 L 351.08 127.50 L 351.04 133.69 C351.00,139.64 349.60,142.59 348.03,140.05 C347.62,139.38 346.97,132.78 346.58,125.37 C344.85,91.88 338.76,71.78 325.52,55.83 C315.41,43.65 296.59,34.05 282.75,34.01 C279.45,34.00 278.00,33.59 278.00,32.66 C278.00,31.92 276.64,28.60 274.98,25.28 C271.23,17.78 263.94,10.83 255.74,6.96 L 249.50 4.00 L 253.38 4.00 C261.19,4.00 272.52,12.80 277.47,22.71 C279.75,27.28 280.52,28.00 283.78,28.54 C303.24,31.76 314.04,36.98 326.03,48.97 C341.29,64.23 348.16,81.93 349.94,110.61 L 350.69 122.73 L 355.01 126.61 C364.14,134.83 368.81,145.33 369.66,159.50 C370.81,178.80 364.04,195.62 348.56,211.86 C340.25,220.57 332.69,226.37 317.96,235.31 C311.06,239.50 304.49,243.96 303.35,245.21 C300.94,247.87 297.00,262.87 297.00,269.36 C297.00,273.54 297.21,273.87 300.75,275.28 C309.49,278.78 315.91,291.02 317.93,308.00 C319.15,318.33 320.59,325.36 322.01,328.01 C324.28,332.26 338.41,328.71 343.84,322.53 C349.67,315.89 352.69,302.57 349.98,295.44 C349.25,293.53 349.29,292.36 350.10,291.38 C351.43,289.78 355.59,289.53 356.50,291.00 C356.84,291.55 357.96,292.00 358.98,292.00 C361.81,292.00 366.77,296.67 367.51,300.03 C368.37,303.95 371.33,303.94 373.66,300.00 C376.34,295.47 380.01,295.89 383.91,301.20 C385.61,303.51 387.00,306.25 387.00,307.29 C387.00,308.34 387.73,311.69 388.61,314.74 C390.84,322.41 390.25,344.44 387.72,348.31 C384.52,353.19 385.20,353.72 394.05,353.20 C400.29,352.84 402.95,353.13 405.93,354.47 C409.49,356.07 412.00,359.34 412.00,362.36 C412.00,364.02 403.01,373.00 401.35,373.00 C400.65,373.00 399.65,373.79 399.13,374.76 C397.97,376.93 399.56,379.41 402.75,380.42 C404.63,381.02 405.00,381.85 405.00,385.49 C405.00,390.42 401.23,396.00 397.91,396.00 C396.86,396.00 396.00,396.61 396.00,397.35 C396.00,398.10 393.41,401.03 390.25,403.86 C387.09,406.70 383.02,410.36 381.22,412.01 ZM 249.50 176.41 C255.94,177.32 272.73,175.97 279.98,173.95 C288.80,171.49 299.68,166.00 303.27,162.20 C307.12,158.11 310.36,148.97 306.64,152.70 C305.56,153.77 303.01,154.19 296.50,154.35 C287.38,154.57 281.57,151.23 268.44,138.25 C254.72,124.70 253.71,124.01 247.50,124.02 C241.56,124.03 237.52,126.11 227.28,134.48 C220.17,140.29 220.15,140.33 222.32,141.96 C233.76,150.58 256.37,165.30 262.30,168.00 L 266.11 169.73 L 262.87 170.38 C261.09,170.73 259.38,170.68 259.07,170.26 C258.75,169.84 254.95,167.70 250.61,165.50 C246.27,163.30 237.86,158.28 231.92,154.36 C225.98,150.43 220.88,147.45 220.58,147.75 C220.29,148.04 219.76,147.55 219.42,146.64 C219.07,145.74 218.16,145.00 217.39,145.00 C216.63,145.00 216.00,144.48 216.00,143.83 C216.00,143.19 215.71,142.96 215.35,143.32 C214.64,144.03 203.96,138.30 202.77,136.57 C202.36,135.98 202.02,135.89 202.02,136.37 C202.01,136.84 200.95,136.54 199.66,135.70 C193.57,131.70 171.99,130.81 166.62,134.33 C165.22,135.25 163.24,136.00 162.22,136.00 C161.21,136.00 159.48,136.79 158.38,137.75 C157.29,138.71 155.59,139.95 154.62,140.50 C153.64,141.05 152.88,141.84 152.92,142.25 C152.97,142.66 152.13,143.87 151.06,144.94 C148.38,147.62 146.61,154.10 147.40,158.30 C148.64,164.94 154.86,170.00 161.78,170.00 C165.56,170.00 180.32,166.23 185.43,163.96 L 189.50 162.14 L 184.50 161.94 C176.22,161.60 170.68,162.13 167.13,163.60 C163.09,165.28 163.00,165.28 163.00,163.95 C163.00,163.38 165.36,161.81 168.25,160.46 C172.41,158.53 175.14,158.02 181.36,158.01 C191.20,158.00 197.21,159.55 217.95,167.49 C232.67,173.13 239.06,174.94 249.50,176.41 ZM 221.69 236.46 C226.53,238.90 230.64,240.93 230.82,240.95 C230.99,240.98 230.20,239.68 229.05,238.07 C222.80,229.29 221.41,220.97 225.41,216.31 C227.44,213.95 228.60,213.50 232.66,213.51 C235.32,213.52 239.03,214.31 240.90,215.26 C242.78,216.22 244.46,217.00 244.65,217.00 C245.69,217.00 244.78,200.56 243.47,195.53 C240.97,185.96 235.48,177.41 232.00,177.70 C231.39,177.75 231.16,177.68 223.00,174.67 C219.43,173.35 211.83,170.39 206.12,168.08 L 195.74 163.89 L 189.12 167.28 C185.48,169.14 180.54,171.28 178.14,172.03 C175.75,172.78 173.55,174.01 173.26,174.76 C172.51,176.72 175.71,187.88 179.04,194.93 C183.32,203.97 189.00,211.76 196.64,219.06 C204.98,227.04 210.18,230.65 221.69,236.46 ZM 271.46 132.63 C280.28,136.74 290.98,135.18 292.39,129.59 C292.73,128.22 295.44,125.01 298.42,122.44 C304.25,117.40 306.00,113.32 306.00,104.74 C306.00,82.52 292.77,65.00 275.99,65.00 C268.13,65.00 263.18,67.51 259.21,73.49 C255.02,79.83 253.49,86.72 253.56,99.00 C253.61,107.39 254.07,110.64 255.84,115.15 C258.75,122.54 265.14,129.69 271.46,132.63 ZM 215.25 132.75 C216.98,134.54 218.98,136.00 219.70,136.00 C220.43,136.00 224.28,133.26 228.26,129.90 C232.24,126.55 237.15,122.96 239.16,121.93 C242.28,120.33 243.14,119.10 244.96,113.61 C247.89,104.81 249.21,91.17 247.92,83.02 C244.69,62.70 233.22,58.27 220.26,72.33 C211.33,82.02 206.55,96.01 207.21,110.50 C207.68,120.74 210.10,127.43 215.25,132.75 ZM 255.00 250.11 C264.80,252.78 276.87,252.53 285.49,249.49 C304.26,242.87 326.98,219.99 333.67,200.98 C337.12,191.18 338.05,171.58 335.61,160.00 C333.61,150.50 325.18,133.49 323.36,135.30 C323.00,135.66 323.86,138.56 325.28,141.73 C328.74,149.52 330.00,157.21 330.00,170.62 C330.00,196.90 320.53,218.21 303.82,229.57 C301.44,231.18 298.84,233.12 298.04,233.89 C296.05,235.78 290.71,237.94 289.65,237.28 C289.17,236.99 288.42,237.33 287.98,238.04 C287.54,238.75 285.79,239.33 284.09,239.33 C282.39,239.33 281.00,239.74 281.00,240.25 C281.00,240.75 279.65,240.86 278.00,240.50 C276.11,240.09 275.00,240.24 275.00,240.92 C275.00,242.29 265.79,242.34 261.32,241.00 C259.49,240.45 256.31,239.51 254.25,238.91 C250.02,237.69 237.00,229.31 237.00,227.81 C237.00,227.28 238.61,227.83 240.57,229.04 C244.89,231.71 250.63,234.48 253.95,235.51 C256.36,236.25 256.37,236.22 254.78,233.79 C249.90,226.34 250.58,217.69 256.55,211.07 C261.25,205.88 260.93,199.07 255.45,187.49 C253.05,182.41 252.82,182.23 247.98,181.59 C245.23,181.23 242.24,180.64 241.34,180.30 C240.04,179.80 240.14,180.28 241.84,182.58 C247.24,189.92 249.93,204.55 247.99,216.04 C246.90,222.50 246.65,223.00 245.15,221.68 C242.01,218.93 237.48,217.34 233.04,217.42 C229.34,217.49 228.33,217.94 227.14,220.05 C225.84,222.38 225.95,223.15 228.48,228.78 C231.43,235.35 238.86,243.31 245.06,246.55 C246.95,247.53 251.43,249.14 255.00,250.11 ZM 261.04 234.38 C263.60,236.54 265.16,237.00 269.87,237.00 C281.05,237.00 296.65,231.02 304.31,223.80 L 308.23 220.09 L 307.83 212.93 C307.60,208.99 307.59,206.27 307.79,206.88 C308.38,208.64 309.99,208.19 310.07,206.25 C310.13,204.77 310.26,204.80 310.93,206.50 C311.37,207.60 311.50,210.19 311.23,212.25 C310.59,217.13 312.05,217.04 315.39,211.98 C318.37,207.48 318.01,205.73 313.37,202.08 C311.34,200.48 309.32,200.01 304.62,200.02 C297.22,200.05 291.74,202.32 286.54,207.53 C283.04,211.03 277.00,221.92 277.00,224.75 C277.00,225.44 276.55,226.00 276.00,226.00 C275.45,226.00 275.00,225.41 275.00,224.68 C275.00,221.68 278.17,213.04 280.56,209.51 L 283.12 205.73 L 275.67 206.21 C263.55,206.98 256.27,212.45 255.25,221.52 C254.69,226.45 256.57,230.61 261.04,234.38 ZM 20.32 162.06 L 20.37 169.74 L 26.50 165.54 C33.20,160.95 44.65,155.84 52.50,153.94 C55.25,153.27 57.87,152.40 58.32,151.99 C59.71,150.75 53.44,138.43 48.91,133.52 C41.10,125.04 31.59,121.20 21.56,122.45 C18.53,122.83 14.63,124.13 12.80,125.38 C9.96,127.31 9.51,128.19 9.57,131.63 C9.62,134.42 10.62,137.05 12.89,140.35 C18.53,148.54 20.26,153.60 20.32,162.06 ZM 192.58 97.33 C191.68,100.90 190.54,106.46 190.04,109.66 C189.19,115.16 189.15,114.95 189.34,106.00 C189.51,97.88 190.02,95.27 192.87,88.00 C194.71,83.32 196.82,78.38 197.56,77.00 C198.31,75.62 200.29,71.76 201.96,68.41 C203.63,65.05 205.90,61.50 207.00,60.50 C209.41,58.32 209.56,56.41 207.42,55.22 C205.08,53.91 206.62,47.38 210.14,43.70 C211.71,42.05 213.00,40.50 213.00,40.25 C213.00,40.01 210.34,40.11 207.10,40.49 C200.68,41.23 197.77,40.30 195.96,36.93 C194.57,34.32 196.20,29.10 199.72,24.92 C202.24,21.93 214.59,15.00 217.40,15.00 C218.20,15.00 219.58,14.27 220.47,13.39 C222.95,10.90 240.76,11.90 247.50,14.91 C253.12,17.41 257.00,20.63 257.00,22.80 C257.00,24.00 256.62,23.96 254.75,22.59 C253.51,21.68 250.02,19.73 247.00,18.26 C242.39,16.01 240.13,15.57 233.00,15.54 C222.64,15.49 214.60,17.75 206.98,22.84 C200.59,27.11 196.83,32.93 198.63,35.74 C199.57,37.19 201.08,37.47 207.26,37.32 C213.67,37.17 215.78,36.63 221.90,33.55 C225.82,31.58 231.17,29.73 233.77,29.45 C237.90,29.02 238.18,29.10 236.00,30.10 C222.20,36.42 218.91,38.39 214.70,42.89 C209.80,48.13 207.99,52.39 209.88,54.28 C210.50,54.90 214.04,55.40 217.76,55.39 C226.34,55.37 234.54,52.64 247.43,45.51 C252.89,42.50 257.58,40.24 257.84,40.51 C258.54,41.21 254.99,44.89 251.78,46.79 C249.68,48.03 249.16,48.93 249.65,50.46 C250.18,52.13 250.04,52.28 248.86,51.30 C247.73,50.36 245.61,50.84 238.69,53.62 C233.88,55.55 227.23,57.64 223.91,58.25 C219.12,59.14 217.29,60.04 215.03,62.62 C211.68,66.43 210.44,65.99 212.62,61.76 C214.85,57.46 212.71,59.21 207.72,65.79 C200.04,75.91 195.66,85.04 192.58,97.33 ZM 282.60 111.23 C278.60,113.91 273.03,106.46 273.01,98.40 C272.99,91.82 277.19,86.96 281.08,89.05 C286.74,92.07 287.81,107.76 282.60,111.23 ZM 241.17 112.45 C238.82,116.47 236.27,116.93 235.41,113.49 C233.48,105.80 237.26,89.91 241.19,89.19 C245.28,88.43 245.27,105.42 241.17,112.45 ZM 301.60 57.17 C303.59,60.44 304.99,63.34 304.72,63.61 C304.45,63.88 302.87,61.88 301.19,59.16 C290.91,42.44 275.20,38.09 263.75,48.80 C259.80,52.49 260.31,49.49 264.31,45.49 C269.91,39.89 279.57,38.66 287.16,42.59 C292.08,45.13 297.79,50.89 301.60,57.17 ZM 253.00 121.00 C255.74,122.77 255.91,122.04 253.85,117.40 C252.69,114.77 251.49,109.10 251.05,104.15 C250.63,99.39 250.22,96.93 250.14,98.68 C249.95,103.07 247.23,115.71 245.96,118.07 C245.04,119.79 245.28,120.00 248.21,120.02 C250.02,120.02 252.18,120.47 253.00,121.00 ZM 247.19 2.90 C248.12,3.23 243.26,3.54 236.39,3.58 C225.19,3.66 224.22,3.53 227.02,2.35 C230.06,1.07 243.05,1.42 247.19,2.90 ZM 218.47 9.95 C218.83,10.53 218.98,10.95 218.81,10.88 C218.64,10.82 217.71,10.56 216.75,10.31 C215.79,10.06 215.00,9.54 215.00,9.15 C215.00,7.34 218.20,4.20 220.47,3.76 C223.64,3.15 223.63,3.51 220.41,6.50 C218.98,7.82 218.11,9.37 218.47,9.95 Z" fill="rgb(39,24,18)" data-index="0" style="opacity: 1;"></path>
<path d="M 249.50 176.41 C239.06,174.94 232.67,173.13 217.95,167.49 C197.21,159.55 191.20,158.00 181.36,158.01 C175.14,158.02 172.41,158.53 168.25,160.46 C165.36,161.81 163.00,163.38 163.00,163.95 C163.00,165.28 163.09,165.28 167.13,163.60 C170.68,162.13 176.22,161.60 184.50,161.94 L 189.50 162.14 L 185.43 163.96 C180.32,166.23 165.56,170.00 161.78,170.00 C154.86,170.00 148.64,164.94 147.40,158.30 C146.61,154.10 148.38,147.62 151.06,144.94 C152.13,143.87 152.97,142.66 152.92,142.25 C152.88,141.84 153.64,141.05 154.62,140.50 C155.59,139.95 157.29,138.71 158.38,137.75 C159.48,136.79 161.21,136.00 162.22,136.00 C163.24,136.00 165.22,135.25 166.62,134.33 C171.99,130.81 193.57,131.70 199.66,135.70 C200.95,136.54 202.01,136.84 202.02,136.37 C202.02,135.89 202.36,135.98 202.77,136.57 C203.96,138.30 214.64,144.03 215.35,143.32 C215.71,142.96 216.00,143.19 216.00,143.83 C216.00,144.48 216.63,145.00 217.39,145.00 C218.16,145.00 219.07,145.74 219.42,146.64 C219.76,147.55 220.29,148.04 220.58,147.75 C220.88,147.45 225.98,150.43 231.92,154.36 C237.86,158.28 246.27,163.30 250.61,165.50 C254.95,167.70 258.75,169.84 259.07,170.26 C259.38,170.68 261.09,170.73 262.87,170.38 L 266.11 169.73 L 262.30 168.00 C256.37,165.30 233.76,150.58 222.32,141.96 C220.15,140.33 220.17,140.29 227.28,134.48 C237.52,126.11 241.56,124.03 247.50,124.02 C253.71,124.01 254.72,124.70 268.44,138.25 C281.57,151.23 287.38,154.57 296.50,154.35 C303.01,154.19 305.56,153.77 306.64,152.70 C310.36,148.97 307.12,158.11 303.27,162.20 C299.68,166.00 288.80,171.49 279.98,173.95 C272.73,175.97 255.94,177.32 249.50,176.41 ZM 255.00 250.11 C251.43,249.14 246.95,247.53 245.06,246.55 C238.86,243.31 231.43,235.35 228.48,228.78 C225.95,223.15 225.84,222.38 227.14,220.05 C228.33,217.94 229.34,217.49 233.04,217.42 C237.48,217.34 242.01,218.93 245.15,221.68 C246.65,223.00 246.90,222.50 247.99,216.04 C249.93,204.55 247.24,189.92 241.84,182.58 C240.14,180.28 240.04,179.80 241.34,180.30 C242.24,180.64 245.23,181.23 247.98,181.59 C252.82,182.23 253.05,182.41 255.45,187.49 C260.93,199.07 261.25,205.88 256.55,211.07 C250.58,217.69 249.90,226.34 254.78,233.79 C256.37,236.22 256.36,236.25 253.95,235.51 C250.63,234.48 244.89,231.71 240.57,229.04 C238.61,227.83 237.00,227.28 237.00,227.81 C237.00,229.31 250.02,237.69 254.25,238.91 C256.31,239.51 259.49,240.45 261.32,241.00 C265.79,242.34 275.00,242.29 275.00,240.92 C275.00,240.24 276.11,240.09 278.00,240.50 C279.65,240.86 281.00,240.75 281.00,240.25 C281.00,239.74 282.39,239.33 284.09,239.33 C285.79,239.33 287.54,238.75 287.98,238.04 C288.42,237.33 289.17,236.99 289.65,237.28 C290.71,237.94 296.05,235.78 298.04,233.89 C298.84,233.12 301.44,231.18 303.82,229.57 C320.53,218.21 330.00,196.90 330.00,170.62 C330.00,157.21 328.74,149.52 325.28,141.73 C324.76,140.56 324.31,139.44 323.98,138.46 C324.29,138.79 324.66,139.00 324.97,139.00 C326.15,139.00 326.25,138.11 325.29,136.44 C328.47,140.37 334.04,152.52 335.61,160.00 C338.05,171.58 337.12,191.18 333.67,200.98 C326.98,219.99 304.26,242.87 285.49,249.49 C276.87,252.53 264.80,252.78 255.00,250.11 ZM 261.04 234.38 C260.01,233.51 259.11,232.62 258.36,231.71 C258.79,232.19 259.26,232.63 259.77,233.03 C263.15,235.69 264.19,235.51 262.82,232.50 C262.19,231.12 261.30,230.00 260.84,230.00 C260.38,230.00 260.00,229.60 260.00,229.11 C260.00,228.62 261.69,229.09 263.75,230.16 C266.41,231.54 269.04,232.02 272.77,231.80 C277.33,231.54 277.80,231.68 276.27,232.82 C274.68,234.01 274.81,234.11 277.50,233.82 C279.24,233.63 280.50,232.92 280.50,232.11 C280.50,231.34 283.42,229.19 287.00,227.33 C294.19,223.58 300.00,218.09 300.00,215.06 C300.00,213.98 300.49,210.83 301.08,208.05 C302.03,203.63 302.48,203.00 304.64,203.00 C306.00,203.00 306.91,203.34 306.66,203.75 C306.41,204.16 306.92,205.16 307.80,205.97 C309.20,207.27 309.31,207.24 308.72,205.72 C308.28,204.57 308.55,204.00 309.53,204.00 C310.34,204.00 311.00,204.45 311.00,205.00 C311.00,206.64 312.74,206.13 313.45,204.28 C313.87,203.17 313.59,202.26 312.67,201.57 C312.91,201.73 313.14,201.89 313.37,202.08 C318.01,205.73 318.37,207.48 315.39,211.98 C312.05,217.04 310.59,217.13 311.23,212.25 C311.50,210.19 311.37,207.60 310.93,206.50 C310.26,204.80 310.13,204.77 310.07,206.25 C309.99,208.19 308.38,208.64 307.79,206.88 C307.59,206.27 307.60,208.99 307.83,212.93 L 308.23 220.09 L 304.31 223.80 C296.65,231.02 281.05,237.00 269.87,237.00 C265.16,237.00 263.60,236.54 261.04,234.38 ZM 311.57 200.97 C310.06,200.35 307.75,200.02 304.71,200.02 C308.01,200.01 309.98,200.26 311.57,200.97 ZM 255.89 227.48 C255.53,226.47 255.30,225.43 255.20,224.35 C255.31,225.43 255.54,226.48 255.89,227.48 ZM 323.60 135.18 C323.48,135.23 323.38,135.32 323.30,135.45 C323.31,135.38 323.33,135.33 323.36,135.30 C323.43,135.23 323.51,135.19 323.60,135.18 Z" fill="rgb(234,172,53)" data-index="1" style="opacity: 1;"></path>
<path d="M 290.76 409.69 C284.14,404.07 276.78,395.17 277.62,393.81 C277.89,393.36 277.61,393.00 277.00,393.00 C276.39,393.00 276.16,392.55 276.50,392.00 C276.84,391.45 276.61,391.00 276.00,391.00 C275.39,391.00 275.16,390.55 275.50,390.00 C275.84,389.45 275.61,389.00 275.00,389.00 C274.39,389.00 274.16,388.55 274.50,388.00 C274.84,387.45 274.61,387.00 274.00,387.00 C273.39,387.00 273.14,386.59 273.45,386.09 C273.76,385.58 273.54,385.01 272.96,384.82 C271.95,384.48 270.22,379.29 268.70,372.86 C269.88,376.49 271.51,379.47 274.02,383.15 C282.16,395.07 293.06,402.58 306.50,405.53 C320.87,408.67 334.40,406.02 348.81,397.24 C353.57,394.33 369.93,382.29 385.50,370.21 C386.05,369.79 388.30,368.10 390.50,366.47 C396.67,361.89 397.01,361.62 399.07,359.75 C401.21,357.81 401.62,356.72 400.14,356.35 C404.20,356.62 407.00,357.98 407.00,360.39 C407.00,362.69 404.38,365.50 397.63,370.45 C395.51,372.00 386.68,380.11 378.01,388.46 C369.34,396.81 358.48,406.20 353.87,409.33 L 345.51 415.00 L 297.02 415.00 ZM 160.69 362.73 C158.27,363.28 156.06,363.68 154.35,363.86 C149.79,364.33 147.58,364.97 147.75,365.78 C148.09,367.46 147.00,367.31 144.88,365.39 C143.85,364.46 140.19,363.46 136.20,363.02 C132.40,362.60 128.46,361.80 127.45,361.23 C125.79,360.30 125.95,360.05 129.05,358.76 C130.95,357.96 134.98,356.74 138.00,356.04 C157.70,351.47 173.30,335.61 177.38,316.00 C178.12,312.42 178.68,309.43 178.61,309.33 C178.55,309.24 173.32,310.50 167.00,312.14 C161.93,313.45 156.76,314.38 151.98,314.88 C156.75,314.35 161.90,313.39 167.00,312.02 C173.32,310.32 179.18,308.83 180.00,308.71 C180.82,308.60 181.73,308.26 182.00,307.96 C182.27,307.66 187.59,305.34 193.82,302.80 C202.37,299.32 204.98,298.59 204.49,299.84 C204.12,300.76 203.59,303.08 203.30,305.00 C203.01,306.92 199.90,314.35 196.37,321.50 C192.85,328.65 188.96,338.20 187.73,342.71 L 185.50 350.92 L 176.50 353.91 C160.69,359.14 154.96,360.30 144.25,360.40 C138.62,360.46 134.01,360.79 134.00,361.14 C134.00,361.97 136.67,363.00 138.83,363.01 C139.75,363.01 141.80,363.69 143.38,364.52 C145.11,365.42 146.72,365.67 147.38,365.15 C148.00,364.67 151.43,364.01 155.00,363.69 C156.51,363.56 158.49,363.21 160.69,362.73 ZM 221.69 236.46 C210.18,230.65 204.98,227.04 196.64,219.06 C189.00,211.76 183.32,203.97 179.04,194.93 C175.71,187.88 172.51,176.72 173.26,174.76 C173.55,174.01 175.75,172.78 178.14,172.03 C180.54,171.28 185.48,169.14 189.12,167.28 L 195.74 163.89 L 206.12 168.08 C211.83,170.39 219.43,173.35 223.00,174.67 C231.16,177.68 231.39,177.75 232.00,177.70 C235.48,177.41 240.97,185.96 243.47,195.53 C244.78,200.56 245.69,217.00 244.65,217.00 C244.84,217.00 244.95,213.96 244.88,210.25 C244.79,205.30 244.58,204.30 244.06,206.50 L 243.37 209.50 L 241.69 205.65 C237.05,194.97 225.53,181.52 215.75,175.34 C213.65,174.01 212.19,172.50 212.52,171.98 C212.85,171.44 212.40,171.29 211.49,171.64 C210.48,172.03 208.78,171.20 206.93,169.43 C204.86,167.45 202.95,166.60 200.55,166.60 C198.67,166.60 197.31,166.31 197.52,165.96 C198.52,164.36 191.86,166.06 185.75,168.97 C179.48,171.96 177.89,173.34 179.75,174.17 C180.16,174.35 181.59,176.52 182.93,179.00 C189.31,190.80 202.68,204.94 215.14,213.06 C219.19,215.70 222.70,217.89 222.94,217.93 C223.18,217.97 224.45,216.99 225.77,215.75 C225.98,215.55 226.22,215.36 226.47,215.19 C226.13,215.50 225.79,215.87 225.41,216.31 C221.41,220.97 222.80,229.29 229.05,238.07 C230.20,239.68 230.99,240.98 230.82,240.95 C230.64,240.93 226.53,238.90 221.69,236.46 ZM 14.58 269.70 C14.75,270.13 14.90,270.51 15.03,270.81 C19.20,280.23 35.54,292.64 49.50,296.99 C58.12,299.67 59.50,300.37 59.50,302.03 C59.50,303.29 57.53,304.16 51.71,305.44 L 48.93 306.06 L 53.01 311.78 C59.24,320.52 68.43,330.45 74.93,335.44 C78.14,337.92 86.09,342.82 92.59,346.32 C105.08,353.06 107.57,355.27 105.00,357.31 C104.02,358.09 103.51,358.91 103.46,359.74 C102.36,358.89 99.73,357.64 95.75,356.12 C84.22,351.73 72.91,345.38 66.20,339.52 C59.37,333.55 42.18,315.18 37.94,309.31 L 34.91 305.11 L 38.45 305.69 C43.29,306.47 42.98,304.77 37.75,301.70 C33.83,299.40 25.93,291.71 25.18,289.46 C25.00,288.93 24.21,288.13 23.41,287.69 C22.61,287.24 22.22,286.45 22.54,285.94 C22.86,285.42 22.64,285.00 22.05,285.00 C20.71,285.00 17.67,278.47 14.58,269.70 ZM 255.89 227.48 L 255.20 224.35 C255.12,223.44 255.14,222.49 255.25,221.52 C256.27,212.45 263.55,206.98 275.67,206.21 L 283.12 205.73 L 280.56 209.51 C278.17,213.04 275.00,221.68 275.00,224.68 C275.00,225.41 275.45,226.00 276.00,226.00 C276.55,226.00 277.00,225.44 277.00,224.75 C277.00,221.92 283.04,211.03 286.54,207.53 C291.74,202.32 297.22,200.05 304.62,200.02 L 304.71 200.02 L 304.71 200.02 C307.75,200.02 310.06,200.35 311.57,200.97 C311.95,201.14 312.32,201.34 312.67,201.57 C313.59,202.26 313.87,203.17 313.45,204.28 C312.74,206.13 311.00,206.64 311.00,205.00 C311.00,204.45 310.34,204.00 309.53,204.00 C308.55,204.00 308.28,204.57 308.72,205.72 C309.31,207.24 309.20,207.27 307.80,205.97 C306.92,205.16 306.41,204.16 306.66,203.75 C306.91,203.34 306.00,203.00 304.64,203.00 C302.48,203.00 302.03,203.63 301.08,208.05 C300.49,210.83 300.00,213.98 300.00,215.06 C300.00,218.09 294.19,223.58 287.00,227.33 C283.42,229.19 280.50,231.34 280.50,232.11 C280.50,232.92 279.24,233.63 277.50,233.82 C274.81,234.11 274.68,234.01 276.27,232.82 C277.80,231.68 277.33,231.54 272.77,231.80 C269.04,232.02 266.41,231.54 263.75,230.16 C261.69,229.09 260.00,228.62 260.00,229.11 C260.00,229.60 260.38,230.00 260.84,230.00 C261.30,230.00 262.19,231.12 262.82,232.50 C264.19,235.51 263.15,235.69 259.77,233.03 C259.26,232.63 258.79,232.19 258.36,231.71 C257.24,230.36 256.42,228.95 255.89,227.48 ZM 60.11 283.02 L 56.72 283.15 C52.21,283.32 50.00,282.60 50.00,280.96 C50.00,279.71 56.36,276.56 67.35,272.37 C80.11,267.51 88.34,262.67 92.66,257.50 C94.70,255.07 97.05,252.81 97.90,252.48 C100.34,251.55 101.88,254.58 100.99,258.54 C100.56,260.44 100.28,262.03 100.36,262.08 C102.06,262.98 104.81,262.24 108.57,259.85 C111.13,258.23 113.48,257.15 113.79,257.46 C114.10,257.77 113.58,259.65 112.64,261.64 C111.69,263.62 111.12,265.45 111.37,265.70 C112.22,266.55 115.65,264.13 119.28,260.11 L 122.88 256.12 L 123.36 259.31 C123.62,261.07 123.69,258.90 123.50,254.50 C123.34,250.80 122.84,247.13 122.06,243.75 C126.39,260.90 124.02,269.59 113.82,273.99 C108.26,276.39 97.12,277.75 92.49,276.59 C88.44,275.57 91.17,273.00 96.31,273.00 C101.88,273.00 110.92,268.62 110.98,265.89 C110.99,265.55 108.90,266.34 106.33,267.64 C103.76,268.94 100.58,270.00 99.26,270.00 L 96.86 270.00 L 99.04 266.94 C102.31,262.36 100.71,262.29 95.31,266.78 C92.66,268.98 88.70,271.68 86.50,272.78 C80.58,275.73 66.39,280.00 62.51,280.00 C60.65,280.00 57.86,280.55 56.32,281.21 C53.62,282.37 53.75,282.45 59.50,282.96 ZM 338.11 200.00 C340.13,193.68 340.48,190.62 340.46,179.47 L 340.50 192.63 L 342.45 190.07 C343.53,188.65 346.37,185.28 348.77,182.56 C353.61,177.10 358.31,170.16 362.46,162.37 C363.92,159.62 364.59,158.26 364.69,156.61 C365.34,163.27 364.83,170.33 363.06,177.26 C362.00,181.43 360.13,186.79 358.92,189.17 C352.60,201.60 340.41,215.30 327.96,223.98 L 321.53 228.46 L 326.12 222.48 C328.64,219.19 331.46,215.04 332.38,213.25 C333.30,211.46 334.41,210.00 334.86,210.00 C335.30,210.00 335.68,209.44 335.70,208.75 C335.71,208.06 336.80,204.12 338.11,200.00 ZM 392.77 356.89 C386.29,358.31 377.12,362.33 370.64,366.71 C365.68,370.07 362.26,371.06 363.62,368.75 C364.02,368.06 366.25,364.71 368.57,361.30 C377.56,348.05 380.49,338.36 379.70,324.55 C379.42,319.57 378.38,313.02 377.39,310.00 L 375.69 304.82 C375.85,304.30 376.00,304.00 376.14,304.00 C376.61,304.00 376.89,303.44 376.75,302.75 C376.61,302.06 377.17,301.50 378.00,301.50 C380.24,301.50 383.68,309.42 385.58,318.94 C387.41,328.12 387.18,337.81 384.88,348.87 C383.79,354.10 383.09,355.44 381.02,356.32 C377.97,357.61 375.00,360.00 375.00,361.15 C375.00,362.67 378.66,362.05 384.13,359.59 C386.96,358.32 389.94,357.42 392.77,356.89 ZM 20.32 162.06 C20.29,157.74 19.82,154.31 18.62,150.89 C18.91,151.60 19.13,152.22 19.27,152.73 C19.89,155.06 20.65,156.56 20.95,156.08 C21.25,155.59 24.13,154.51 27.35,153.67 C36.19,151.36 43.62,145.39 47.96,137.11 C48.95,135.24 49.40,135.02 50.09,136.11 C50.59,136.90 50.98,137.01 50.98,136.38 C50.99,136.25 50.93,136.08 50.82,135.87 C55.00,141.56 59.52,150.92 58.32,151.99 C57.87,152.40 55.25,153.27 52.50,153.94 C44.65,155.84 33.20,160.95 26.50,165.54 L 20.37 169.74 ZM 60.29 193.96 C60.12,193.98 59.98,194.00 59.88,194.00 C58.92,194.00 57.47,194.68 56.64,195.50 C54.20,197.95 52.69,197.36 53.47,194.25 C55.07,187.83 61.97,182.51 75.73,177.10 C83.14,174.19 87.66,171.00 89.67,167.30 C91.12,164.62 91.66,164.29 92.95,165.30 C93.80,165.96 93.34,164.93 91.91,163.00 C86.09,155.12 76.95,154.06 57.36,158.98 C76.41,154.19 85.32,155.05 91.66,162.27 C95.34,166.45 96.88,170.64 97.24,177.43 L 97.50 182.36 L 92.50 182.15 C89.75,182.03 84.90,182.62 81.72,183.46 C72.11,186.01 57.40,193.32 60.29,193.96 ZM 363.16 410.87 C366.10,408.60 374.89,400.42 382.71,392.68 C396.75,378.78 396.94,378.63 398.96,380.46 C400.08,381.48 401.00,383.53 401.00,385.02 C401.00,388.05 398.47,390.58 380.23,405.75 L 369.12 415.00 L 357.82 415.00 ZM 191.87 349.50 C192.28,347.22 192.79,344.98 193.44,342.50 C194.87,337.00 196.46,332.36 196.97,332.19 C197.47,332.01 197.64,331.22 197.34,330.44 C197.03,329.65 197.31,329.00 197.95,329.00 C198.59,329.00 198.84,328.55 198.50,328.00 C198.16,327.45 198.36,327.00 198.94,327.00 C199.52,327.00 199.95,326.66 199.88,326.25 C199.53,324.02 200.19,321.95 201.75,320.39 C202.71,319.43 203.34,318.48 203.15,318.28 C202.95,318.08 203.33,316.61 203.99,315.02 C205.04,312.50 205.50,312.24 207.59,313.03 C208.90,313.53 210.74,313.65 211.66,313.30 C213.02,312.78 213.19,313.03 212.53,314.58 C210.71,318.85 209.08,328.71 209.66,332.00 C211.48,342.44 219.25,345.95 225.40,339.11 C227.96,336.28 228.39,336.41 229.87,340.51 C231.21,344.23 235.03,346.86 239.22,346.99 C238.45,347.17 237.67,347.32 236.93,347.43 C233.19,347.95 231.88,347.69 229.73,346.00 L 227.11 343.94 L 223.32 345.97 C218.31,348.65 215.78,348.53 212.10,345.43 C208.93,342.76 206.45,336.22 207.33,332.85 C208.01,330.23 207.03,330.50 200.60,334.74 C195.25,338.26 193.80,340.27 191.87,349.50 ZM 129.04 314.53 C125.34,311.05 120.35,305.16 117.54,300.70 C114.48,295.87 111.67,293.46 108.00,292.54 C107.72,292.47 105.25,291.65 102.50,290.72 C96.15,288.57 88.74,287.13 78.09,285.99 C73.46,285.49 69.36,284.58 68.97,283.95 C68.52,283.22 67.52,283.87 66.16,285.78 C63.52,289.49 59.39,291.24 54.38,290.78 C50.63,290.44 50.58,290.39 53.00,289.32 C54.38,288.72 56.77,287.04 58.31,285.60 L 61.00 283.10 L 65.50 283.50 L 62.00 285.75 C60.08,286.98 59.17,287.99 60.00,287.99 C61.94,287.99 68.00,284.30 68.00,283.13 C68.00,282.63 69.69,281.91 71.75,281.53 C73.81,281.14 77.92,279.98 80.87,278.95 L 86.24 277.07 L 88.03 279.28 C89.59,281.22 90.97,281.54 98.87,281.85 L 107.91 282.20 L 108.98 285.44 C111.34,292.58 122.23,307.98 129.04,314.53 ZM 358.55 343.75 C357.62,344.46 356.68,345.06 355.75,345.52 C353.14,346.84 351.00,347.73 351.00,347.49 C351.00,347.26 352.11,345.08 353.47,342.65 C360.82,329.49 363.02,313.19 359.03,301.58 C357.94,298.42 357.15,295.38 357.28,294.83 C357.40,294.28 356.74,293.33 355.81,292.70 C357.14,293.32 358.85,294.58 360.86,296.47 C363.79,299.20 366.69,303.18 368.02,306.27 C370.08,311.06 370.16,311.98 369.08,317.87 C367.84,324.61 363.57,334.99 359.94,340.08 C358.49,342.12 358.14,343.44 358.55,343.75 ZM 80.08 228.97 C76.26,230.22 72.08,231.73 67.50,233.51 C64.01,234.87 74.14,225.15 80.60,220.94 C84.08,218.67 90.80,215.68 96.27,213.97 C103.49,211.71 106.44,210.26 108.31,208.05 C109.67,206.43 111.05,205.39 111.39,205.72 C111.92,206.25 112.09,205.90 111.97,205.03 C113.32,210.21 114.08,216.36 113.49,219.05 C112.91,221.69 112.73,221.77 109.21,220.79 C102.61,218.97 87.08,222.44 79.44,227.44 C76.37,229.46 76.52,229.97 80.08,228.97 ZM 103.67 360.86 C104.11,361.85 105.18,362.84 106.88,363.77 C111.67,366.42 115.47,367.57 114.57,366.11 C112.94,363.48 115.34,363.20 118.95,365.58 C123.76,368.77 132.03,369.85 131.34,367.20 C130.96,365.73 131.75,365.50 137.20,365.53 C143.79,365.57 146.47,366.43 145.40,368.17 C144.99,368.82 145.51,368.80 146.81,368.10 C147.33,367.83 147.80,367.61 148.25,367.44 C148.36,367.73 148.77,368.19 149.47,368.96 C150.44,370.04 150.98,371.62 150.65,372.46 C149.72,374.90 145.24,374.26 138.92,370.79 C135.71,369.03 132.83,367.83 132.53,368.14 C132.22,368.44 132.65,370.32 133.49,372.31 C134.32,374.31 135.00,376.35 135.00,376.86 C135.00,378.61 131.89,378.98 128.69,377.62 C125.52,376.27 119.83,371.00 121.55,371.00 C122.04,371.00 121.44,370.30 120.22,369.44 C117.67,367.65 115.26,368.41 116.97,370.46 C118.42,372.22 117.19,375.00 114.96,375.00 C113.96,375.00 110.52,372.53 107.32,369.51 C104.12,366.50 101.89,364.02 102.37,364.01 C102.85,364.01 102.68,363.33 102.00,362.50 C100.98,361.27 101.05,361.00 102.38,361.00 C102.97,361.00 103.40,360.95 103.67,360.86 ZM 257.21 42.14 C257.81,41.37 258.09,40.75 257.84,40.51 C257.58,40.24 252.89,42.50 247.43,45.51 C234.54,52.64 226.34,55.37 217.76,55.39 C214.04,55.40 210.50,54.90 209.88,54.28 C208.41,52.81 209.18,49.90 211.91,46.20 C211.48,47.32 212.68,47.56 218.54,47.81 C230.25,48.31 244.55,43.82 256.00,36.05 C260.39,33.08 260.51,33.05 260.84,35.14 C261.14,37.05 259.84,39.51 257.21,42.14 ZM 232.97 31.49 C233.92,31.05 234.93,30.59 236.00,30.10 C238.18,29.10 237.90,29.02 233.77,29.45 C231.17,29.73 225.82,31.58 221.90,33.55 C215.78,36.63 213.67,37.17 207.26,37.32 C201.08,37.47 199.57,37.19 198.63,35.74 C197.53,34.03 198.50,31.19 200.87,28.28 C200.36,29.46 201.05,29.56 204.82,29.41 C207.40,29.31 213.30,28.22 217.94,26.99 C226.83,24.65 233.96,24.71 237.87,27.15 C240.31,28.68 238.96,31.00 235.63,31.00 C234.90,31.00 234.00,31.18 232.97,31.49 ZM 295.45 131.72 C295.49,131.77 295.61,131.74 295.80,131.62 C296.53,131.17 297.00,131.48 297.00,132.41 C297.00,134.33 300.06,136.00 303.60,136.00 C305.11,136.00 308.73,134.65 311.66,132.99 C314.59,131.34 317.88,129.85 318.97,129.69 C320.06,129.52 321.26,129.07 321.64,128.69 C322.92,127.41 332.47,128.04 334.44,129.53 C335.51,130.34 335.96,131.01 335.44,131.03 C334.92,131.05 335.29,131.52 336.25,132.08 C337.21,132.64 338.00,133.98 338.00,135.05 L 338.00 135.11 C338.00,135.97 338.00,136.51 337.74,136.73 C337.31,137.09 336.22,136.67 333.37,135.53 C334.24,135.73 334.69,135.50 335.10,134.84 C336.09,133.23 331.08,131.00 326.49,131.00 C323.30,131.00 321.01,132.36 309.97,140.75 C307.38,142.72 304.48,144.02 302.60,144.06 C300.09,144.11 299.65,144.14 300.93,144.69 C296.43,143.54 291.42,141.25 292.34,140.32 C292.59,140.08 292.42,139.46 291.97,138.85 C292.56,138.30 293.30,136.94 293.84,135.14 C294.11,134.23 294.70,133.01 295.45,131.72 ZM 247.19 2.90 C243.05,1.42 230.06,1.07 227.02,2.35 C224.76,3.30 224.96,3.57 230.97,3.60 C227.16,3.98 223.73,4.55 223.13,4.92 C222.46,5.33 225.74,6.23 230.40,6.93 C235.07,7.62 240.70,9.16 242.91,10.35 C246.11,12.06 250.46,15.44 253.48,18.29 C251.89,17.12 249.85,15.95 247.50,14.91 C240.94,11.99 223.90,10.96 220.70,13.20 C221.38,12.15 220.71,10.95 218.88,10.80 C218.85,10.65 218.70,10.33 218.47,9.95 C218.11,9.37 218.98,7.82 220.41,6.50 C223.15,3.95 223.57,3.32 221.68,3.56 C222.06,3.43 222.44,3.27 222.76,3.10 C223.72,2.61 225.62,1.74 227.00,1.17 C228.75,0.45 194.85,0.11 114.75,0.07 L 0.00 0.00 L 415.00 0.00 L 325.25 0.15 C275.89,0.23 237.98,0.61 241.00,1.01 C246.81,1.76 251.83,2.84 256.17,4.33 C255.20,4.11 254.27,4.00 253.38,4.00 L 249.50 4.00 L 255.74 6.96 C257.35,7.71 258.92,8.59 260.43,9.57 C254.91,6.14 248.70,4.11 241.84,3.48 C245.62,3.35 247.85,3.13 247.19,2.90 ZM 238.58 315.69 C235.31,317.58 230.72,323.01 229.25,327.21 C227.19,333.08 221.04,339.31 218.27,338.32 C213.35,336.57 212.28,332.04 214.49,322.33 C214.64,321.71 214.79,321.09 214.95,320.49 C214.85,321.00 214.78,321.49 214.75,321.95 C214.54,324.87 214.90,325.54 217.11,326.34 C220.68,327.64 224.45,326.51 227.48,323.24 C228.88,321.73 230.58,320.48 231.26,320.45 C231.94,320.43 232.35,319.75 232.17,318.95 C231.98,318.15 232.17,317.84 232.59,318.25 C233.00,318.67 234.05,318.36 234.92,317.58 C235.63,316.94 237.15,316.17 238.58,315.69 ZM 248.80 337.91 C249.32,335.41 247.73,335.91 244.60,339.32 C238.53,345.95 232.68,343.24 232.43,333.68 C232.35,330.96 232.75,328.31 233.57,325.88 C233.20,327.36 233.56,328.28 234.75,330.33 C237.34,334.77 240.92,334.97 247.24,331.04 C250.00,329.33 252.52,328.18 252.84,328.50 C253.36,329.02 251.22,333.62 248.80,337.91 ZM 230.18 298.23 C228.32,297.65 224.04,300.02 219.17,304.35 C216.40,306.81 213.15,309.13 211.95,309.51 C209.11,310.42 206.41,307.88 207.51,305.33 C207.95,304.32 208.42,302.95 208.56,302.27 C209.03,300.03 211.71,296.92 215.89,293.50 C213.49,295.54 211.69,297.49 210.53,299.30 C209.44,301.00 209.10,302.05 209.78,301.64 C210.45,301.22 211.00,301.36 211.00,301.94 C211.00,303.53 215.25,303.22 217.78,301.44 C219.00,300.59 220.45,300.16 221.00,300.50 C221.55,300.84 222.00,300.61 222.00,300.00 C222.00,299.39 222.45,299.16 223.00,299.50 C223.55,299.84 224.00,299.69 224.00,299.16 C224.00,298.63 225.42,297.70 227.15,297.10 C227.34,297.03 227.52,296.97 227.69,296.91 C229.67,296.22 230.42,295.96 230.64,296.19 C230.78,296.33 230.73,296.65 230.65,297.17 C230.64,297.24 230.63,297.32 230.62,297.40 C230.59,297.60 230.43,297.88 230.18,298.23 ZM 196.22 407.75 C192.26,398.04 190.49,389.95 190.20,378.53 C190.76,388.28 192.14,396.85 193.93,397.96 C194.56,398.34 194.90,399.30 194.70,400.08 C194.49,400.86 194.51,401.17 194.74,400.78 C194.96,400.38 197.82,403.42 201.09,407.53 L 207.02 415.00 L 199.19 415.00 ZM 295.50 257.70 C296.58,251.06 295.51,250.62 288.96,253.12 C286.66,254.01 284.20,254.60 280.79,255.03 C286.83,254.03 291.84,252.21 297.09,249.27 C297.42,249.09 296.87,252.21 295.86,256.22 C295.74,256.71 295.62,257.20 295.50,257.70 ZM 323.60 135.18 C324.00,135.10 324.59,135.57 325.29,136.44 C326.25,138.11 326.15,139.00 324.97,139.00 C324.66,139.00 324.29,138.79 323.98,138.46 C323.48,137.00 323.21,135.88 323.30,135.45 C323.38,135.32 323.48,135.23 323.60,135.18 ZM 353.07 298.38 L 353.08 298.41 C354.24,303.00 354.04,309.31 352.76,314.30 C353.24,311.98 353.38,309.31 353.32,306.00 C353.27,303.30 353.18,300.51 353.07,298.38 ZM 375.45 305.77 L 374.88 311.23 C374.49,314.93 373.62,319.65 372.95,321.73 C371.14,327.33 368.26,332.76 364.96,337.12 C371.03,328.60 374.02,320.59 374.73,311.25 C374.90,309.07 375.17,307.10 375.45,305.77 ZM 264.35 8.09 C270.11,11.57 274.28,16.33 277.47,22.71 C274.60,16.96 269.58,11.59 264.35,8.09 ZM 208.51 170.01 C208.84,170.56 209.54,171.00 210.06,171.00 C211.50,171.00 211.18,170.28 209.45,169.62 C208.56,169.28 208.16,169.44 208.51,170.01 ZM 364.23 163.00 C364.23,164.93 364.44,165.71 364.69,164.75 C364.94,163.79 364.94,162.21 364.69,161.25 C364.44,160.29 364.23,161.07 364.23,163.00 ZM 116.99 231.23 C116.58,230.65 116.14,230.11 115.70,229.64 C113.28,227.08 110.27,225.46 106.36,224.80 C108.56,225.07 110.43,225.56 111.75,226.28 C113.73,227.36 115.47,229.00 116.99,231.23 ZM 215.04 9.32 C215.22,9.68 215.92,10.09 216.75,10.31 C217.42,10.49 218.07,10.66 218.46,10.78 C218.24,10.78 217.99,10.79 217.73,10.82 C215.95,11.03 215.00,10.68 215.00,9.79 C215.00,9.64 215.02,9.48 215.04,9.32 ZM 0.81 212.58 C0.85,213.29 0.89,213.60 0.93,213.50 C1.35,212.42 1.73,211.44 2.07,210.52 C1.69,212.16 1.35,213.99 1.13,215.70 C1.01,216.59 0.91,215.50 0.81,212.58 ZM 7.06 208.56 C6.61,212.28 6.55,216.93 6.60,225.50 C6.64,233.57 6.72,238.06 7.19,242.00 C6.66,237.85 6.55,233.29 6.53,225.00 C6.52,216.82 6.61,212.26 7.06,208.56 ZM 217.06 314.39 C219.36,309.06 222.55,304.70 226.27,301.96 C226.16,302.04 226.06,302.12 225.96,302.20 C222.78,304.61 219.29,309.60 217.06,314.39 ZM 96.65 224.86 C92.94,225.36 88.70,226.33 83.81,227.80 C84.21,227.66 84.62,227.52 85.05,227.38 C88.70,226.12 92.76,225.27 96.65,224.86 ZM 308.72 147.64 C308.22,148.08 307.56,148.57 306.75,149.08 C304.71,150.36 303.21,150.84 300.04,150.84 C302.72,150.61 305.14,149.99 306.75,149.01 C307.49,148.56 308.17,148.08 308.72,147.64 ZM 3.66 205.67 C4.26,203.47 4.63,201.45 4.93,199.00 C4.96,198.77 4.99,198.55 5.03,198.32 C5.01,198.56 5.00,198.80 5.00,199.02 C5.00,201.12 4.41,204.00 3.66,205.67 ZM 286.85 148.71 C284.35,147.66 281.94,146.12 279.24,143.94 C281.76,145.76 284.63,147.58 286.85,148.71 ZM 269.61 17.43 C271.78,19.89 273.62,22.55 274.98,25.28 C275.05,25.41 275.11,25.53 275.17,25.66 C273.60,22.87 271.56,19.83 269.61,17.43 ZM 292.99 271.46 C293.22,270.90 293.36,270.17 293.52,269.17 C293.63,268.46 293.80,267.44 294.00,266.28 C293.95,268.76 293.69,270.37 292.99,271.46 ZM 307.23 145.45 C309.19,145.03 310.07,145.32 309.92,146.06 C309.64,145.79 308.61,145.57 307.23,145.45 ZM 239.62 317.11 C240.90,315.96 241.34,315.27 240.94,315.06 L 242.50 314.68 ZM 33.47 123.42 C29.18,122.27 24.59,122.00 20.54,122.61 C20.89,122.54 21.23,122.49 21.56,122.45 C25.64,121.94 29.64,122.27 33.47,123.42 ZM 194.68 90.07 C197.62,81.22 201.63,73.82 207.72,65.79 C201.90,73.47 197.71,81.16 194.68,90.07 ZM 184.18 354.00 C184.47,354.00 184.49,360.43 184.22,368.30 C184.48,360.78 184.39,354.56 184.03,354.04 C184.09,354.01 184.14,354.00 184.18,354.00 ZM 216.28 41.29 C218.03,39.62 219.87,38.24 222.66,36.64 C220.35,38.11 218.12,39.73 216.28,41.29 ZM 249.72 50.49 C250.00,51.49 250.06,51.93 249.79,51.91 C250.04,51.92 249.97,51.47 249.65,50.46 C249.21,49.10 249.58,48.23 251.14,47.19 C249.76,48.47 249.41,49.41 249.72,50.49 ZM 232.29 213.51 C235.16,213.37 238.32,213.95 240.90,215.26 C239.03,214.31 235.32,213.52 232.66,213.51 C232.54,213.51 232.41,213.51 232.29,213.51 ZM 273.66 139.05 L 272.50 138.02 L 274.80 138.22 C273.47,138.21 273.26,138.46 273.66,139.05 ZM 219.69 4.00 C218.61,4.43 217.44,5.32 216.53,6.30 C217.50,5.03 218.71,4.00 219.57,4.00 C219.61,4.00 219.65,4.00 219.69,4.00 ZM 9.80 133.72 C10.27,135.51 11.21,137.56 12.62,139.94 C11.09,137.65 10.18,135.67 9.80,133.72 ZM 173.82 306.57 C184.24,303.26 197.47,298.58 204.50,295.60 C196.98,298.78 184.14,303.32 173.82,306.57 ZM 242.19 346.12 C243.08,345.61 244.02,344.90 244.89,344.09 C244.36,344.78 243.90,345.28 243.57,345.49 C243.24,345.69 242.76,345.91 242.19,346.12 ZM 206.61 23.09 C206.73,23.01 206.85,22.92 206.98,22.84 C209.46,21.18 211.98,19.83 214.61,18.75 C211.86,19.98 209.00,21.55 206.61,23.09 ZM 12.80 125.38 C11.15,126.50 10.10,127.80 9.66,129.37 C9.91,127.65 10.71,126.80 12.80,125.38 ZM 362.30 145.24 C360.45,139.93 357.73,135.03 354.56,131.43 C357.94,135.27 360.54,139.99 362.30,145.24 ZM 340.61 330.10 C339.12,331.19 337.70,332.06 336.47,332.58 C335.85,332.84 335.04,333.08 334.15,333.29 C336.35,332.68 338.43,331.64 340.61,330.10 ZM 0.80 229.48 C0.86,228.02 0.93,227.34 1.00,227.50 C1.17,227.89 1.33,228.64 1.47,229.62 C1.33,229.00 1.17,228.60 1.00,228.50 C0.93,228.46 0.86,228.78 0.80,229.48 ZM 219.40 14.24 C218.68,14.70 217.92,15.00 217.40,15.00 C217.20,15.00 216.94,15.04 216.64,15.11 C217.24,14.90 217.81,14.73 218.32,14.61 C218.72,14.51 219.08,14.38 219.40,14.24 ZM 259.61 256.22 C260.65,256.04 262.29,256.00 264.94,256.00 ZM 284.90 138.69 C286.34,138.59 287.54,138.39 288.25,138.12 C289.93,137.47 290.94,137.42 291.00,137.98 C290.26,137.60 289.35,137.69 288.00,138.21 C287.39,138.45 286.27,138.61 284.90,138.69 ZM 153.25 369.49 C153.91,370.89 153.85,372.03 153.08,373.72 C153.75,372.26 153.74,370.73 153.25,369.49 ZM 318.68 117.46 C315.06,117.87 311.73,118.65 308.82,119.76 C311.68,118.61 314.93,117.86 318.68,117.46 ZM 331.53 134.83 C329.99,134.30 328.77,134.01 328.52,134.15 C328.53,134.14 328.53,134.14 328.54,134.13 C328.78,133.89 330.11,134.20 331.53,134.83 ZM 122.95 301.48 C123.46,302.23 123.94,302.91 124.38,303.50 C124.92,304.22 125.45,304.92 125.91,305.54 C125.43,304.99 124.96,304.40 124.50,303.76 C124.01,303.07 123.49,302.31 122.95,301.48 ZM 206.93 19.71 C203.73,21.60 200.81,23.63 199.72,24.92 C200.88,23.54 203.70,21.58 206.93,19.71 ZM 48.14 132.70 C46.91,131.47 45.40,130.12 43.92,128.91 C45.37,130.03 46.78,131.30 48.14,132.70 ZM 181.95 355.54 C181.03,356.40 177.80,357.73 173.75,359.08 C177.66,357.77 180.84,356.45 181.95,355.54 ZM 236.01 320.96 C236.77,319.85 237.64,318.85 238.62,317.98 C237.72,318.82 236.79,319.89 236.01,320.96 ZM 155.75 310.95 C157.67,310.73 159.45,310.48 160.85,310.23 C159.50,310.50 157.71,310.74 155.75,310.95 ZM 8.51 187.98 C9.86,185.20 11.62,182.11 13.82,178.63 C11.68,182.02 9.90,185.16 8.51,187.98 ZM 104.77 192.16 C102.68,190.16 100.34,188.61 98.17,187.89 C100.37,188.62 102.69,190.16 104.77,192.16 ZM 277.19 279.98 C272.92,284.08 269.27,289.79 266.96,296.38 C269.28,289.78 272.92,284.07 277.19,279.98 ZM 150.87 367.16 C151.41,367.30 151.89,367.59 152.30,368.03 C151.90,367.63 151.42,367.33 150.87,367.16 ZM 256.98 23.19 C256.89,24.00 256.42,23.82 254.75,22.59 C256.38,23.79 256.88,23.97 256.98,23.19 ZM 2.62 243.18 C2.87,244.20 3.17,244.97 3.53,245.44 C3.16,244.95 2.86,244.19 2.62,243.18 ZM 112.00 280.85 C112.00,280.49 112.17,280.09 112.52,279.66 C112.18,280.09 112.00,280.49 112.00,280.87 ZM 131.94 309.71 C132.04,309.75 132.15,309.79 132.25,309.83 C132.15,309.79 132.04,309.75 131.94,309.71 ZM 257.00 22.66 C257.00,22.69 257.00,22.72 257.00,22.74 C257.00,22.75 257.00,22.77 257.00,22.78 C257.00,22.74 257.00,22.70 257.00,22.66 Z" fill="rgb(198,177,160)" data-index="2" style="opacity: 1;"></path>

</g>
</svg>